<?xml version="1.0" standalone="no"?>
<!DOCTYPE svg PUBLIC "-//W3C//DTD SVG 20010904//EN"
 "http://www.w3.org/TR/2001/REC-SVG-20010904/DTD/svg10.dtd">
<svg version="1.0" xmlns="http://www.w3.org/2000/svg"
 width="863.000000pt" height="863.000000pt" viewBox="0 0 863.000000 863.000000"
 preserveAspectRatio="xMidYMid meet">

<g transform="translate(0.000000,863.000000) scale(0.100000,-0.100000)"
fill="#000000" stroke="none">
<path d="M0 4315 l0 -4315 4315 0 4315 0 0 4315 0 4315 -4315 0 -4315 0 0
-4315z m6267 471 c1 -1 6 -35 9 -74 l7 -72 -41 0 c-34 0 -41 3 -44 22 -4 28
-54 55 -77 41 -26 -17 -24 -33 9 -50 152 -84 194 -129 187 -203 -4 -35 -13
-51 -40 -76 -47 -43 -91 -54 -197 -47 l-90 6 0 78 0 79 34 0 c29 0 36 -5 45
-30 15 -44 94 -68 120 -36 19 22 3 42 -59 75 -113 60 -157 116 -143 182 8 40
63 96 106 107 25 7 165 5 174 -2z m-3645 -15 c4 -3 8 -35 9 -71 l3 -65 -37 -3
c-28 -2 -37 1 -37 12 0 25 -37 56 -68 56 -83 0 -139 -135 -98 -235 17 -40 42
-55 90 -55 36 0 36 0 36 44 0 35 -4 45 -20 49 -15 4 -20 14 -20 41 l0 36 105
0 105 0 0 -36 c0 -27 -5 -37 -20 -41 -16 -4 -20 -14 -20 -47 0 -87 -60 -136
-168 -136 -140 0 -235 91 -236 225 0 109 64 198 164 230 44 14 196 11 212 -4z
m1216 -29 c3 -37 1 -42 -17 -42 -20 0 -21 -5 -21 -149 l0 -148 24 4 c22 4 32
25 86 176 76 210 74 207 110 207 37 0 40 -6 115 -217 56 -159 58 -163 86 -163
l29 0 0 145 0 145 -26 6 c-22 6 -25 11 -22 43 l3 36 94 3 c130 4 193 -11 244
-56 50 -46 77 -103 77 -167 0 -102 -41 -174 -124 -218 -37 -19 -61 -22 -229
-25 -228 -5 -237 -3 -237 44 0 21 6 37 15 40 11 5 12 11 4 25 -7 14 -21 19
-49 19 -28 0 -42 -5 -49 -19 -8 -15 -7 -20 5 -25 11 -4 14 -17 12 -43 l-3 -38
-102 -1 c-63 -1 -108 3 -116 10 -8 6 -58 66 -112 134 -53 67 -99 122 -101 122
-2 0 -4 -40 -4 -89 0 -81 2 -89 21 -94 17 -5 20 -12 17 -44 l-3 -38 -278 -3
c-153 -1 -292 1 -310 6 -26 6 -41 22 -80 87 -26 44 -52 82 -57 83 -6 2 -10
-17 -10 -43 0 -38 4 -48 20 -52 16 -4 20 -14 20 -45 l0 -39 -102 3 -103 3 -3
38 c-3 31 0 37 16 37 26 0 32 34 32 181 0 110 -1 119 -19 119 -23 0 -33 23
-25 56 6 24 7 24 133 24 146 0 197 -16 231 -72 32 -52 27 -101 -16 -147 -39
-44 -39 -41 12 -122 19 -30 27 -36 48 -32 l26 5 0 143 c0 134 -1 143 -20 148
-15 4 -20 14 -20 41 l0 36 165 0 165 0 0 -65 c0 -58 -2 -65 -20 -65 -17 0 -19
-8 -22 -87 l-3 -88 -35 0 c-29 0 -36 4 -38 23 -2 14 -10 22 -23 22 -16 0 -19
-7 -19 -55 l0 -55 53 0 c48 0 55 3 65 26 10 21 18 25 45 22 26 -2 32 -7 31
-25 0 -13 3 -23 8 -23 4 0 8 65 8 144 0 135 -1 144 -20 149 -15 4 -20 14 -20
41 l0 36 70 0 70 0 86 -105 c48 -58 88 -105 90 -105 2 0 4 29 4 65 0 57 -2 65
-19 65 -31 0 -44 62 -17 77 8 4 45 8 83 8 l68 0 3 -43z m1110 -19 c-3 -59 -6
-68 -23 -71 -19 -2 -20 -9 -17 -87 l3 -85 -40 0 c-34 0 -41 3 -41 20 0 13 -7
20 -20 20 -17 0 -20 -7 -20 -50 l0 -50 59 0 c50 0 59 3 64 20 4 15 14 20 42
20 34 0 37 -2 33 -25 -3 -14 -1 -25 3 -25 5 0 9 68 9 150 0 138 -1 151 -17
148 -15 -2 -18 4 -18 37 l0 40 100 3 c125 4 196 -10 240 -50 57 -49 56 -119
-2 -180 l-25 -26 33 -61 c29 -52 38 -61 62 -61 l28 0 -3 148 c-3 145 -3 147
-26 150 -20 3 -23 8 -20 40 l3 37 200 0 200 0 3 -33 c3 -27 -1 -35 -17 -39
-20 -5 -21 -12 -21 -120 0 -153 24 -197 96 -179 39 10 54 59 54 181 0 104 0
106 -26 115 -21 8 -25 15 -22 42 l3 33 79 3 c84 3 96 -2 96 -46 0 -15 -8 -26
-24 -32 -25 -9 -25 -10 -23 -132 2 -114 0 -126 -23 -168 -64 -115 -234 -119
-308 -8 -25 39 -27 49 -30 175 l-4 134 -31 -3 -32 -3 -2 -120 c-2 -143 3 -172
28 -178 14 -4 19 -14 19 -41 l0 -36 -155 0 c-178 0 -167 -5 -230 103 -21 37
-43 67 -47 67 -4 0 -8 -20 -8 -45 0 -38 3 -45 20 -45 17 0 20 -7 20 -40 l0
-40 -275 0 -275 0 0 40 c0 34 3 40 20 40 20 0 20 5 18 148 -3 123 -5 147 -18
147 -10 0 -16 13 -18 43 l-3 42 166 0 166 0 -3 -67z"/>
<path d="M4370 4561 l0 -141 26 0 c38 0 64 18 80 55 27 64 12 169 -28 202 -8
7 -29 16 -46 19 l-32 7 0 -142z"/>
<path d="M2830 4640 c0 -49 1 -50 29 -50 37 0 61 23 61 60 0 30 -15 40 -61 40
-28 0 -29 -1 -29 -50z"/>
<path d="M3230 4650 c0 -33 4 -40 19 -40 10 0 21 9 24 20 3 12 14 20 26 20 14
0 21 6 21 20 0 17 -7 20 -45 20 l-45 0 0 -40z"/>
<path d="M3990 4550 c0 -5 5 -10 10 -10 6 0 10 5 10 10 0 6 -4 10 -10 10 -5 0
-10 -4 -10 -10z"/>
<path d="M4787 4694 c-4 -4 -7 -25 -7 -46 0 -34 3 -38 25 -38 18 0 25 5 25 20
0 15 7 20 26 20 21 0 25 4 22 23 -2 18 -10 23 -43 25 -23 2 -44 0 -48 -4z"/>
<path d="M5130 4650 l0 -50 35 0 c59 0 74 70 18 91 -47 17 -53 13 -53 -41z"/>
</g>
</svg>
